 <svg xmlns="http://www.w3.org/2000/svg" viewBox="0 0 24 24" fill="currentColor">
            <path d="M11.7 2.004a.75.75 0 01.6 0l7.5 4.5a.75.75 0 01.3 1.05l-4.5 7.5a.75.75 0 01-1.05.3l-7.5-4.5a.75.75 0 01-.3-1.05l4.5-7.5a.75.75 0 01.45-.3zM13.2 3.44l-4.5 7.5 7.5 4.5 4.5-7.5-7.5-4.5z" />
            <path d="M4.502 15.004a.75.75 0 01.6 0l7.5 4.5a.75.75 0 01.3 1.05l-4.5 7.5a.75.75 0 01-1.05.3l-7.5-4.5a.75.75 0 01-.3-1.05l4.5-7.5a.75.75 0 01.45-.3zM6.002 16.94l-4.5 7.5 7.5 4.5 4.5-7.5-7.5-4.5z" />
        </svg>